<svg width="900" height="506" viewBox="0 0 900 506" xmlns="http://www.w3.org/2000/svg">
<defs>
<linearGradient id="bg" x1="0" y1="0" x2="1" y2="1">
<stop offset="0" stop-color="#0f172a"/>
<stop offset="1" stop-color="#1e293b"/>
</linearGradient>
</defs>
<rect width="900" height="506" fill="url(#bg)"/>
<g opacity="0.08" stroke="#38bdf8" stroke-width="1">
<line x1="0" y1="80" x2="900" y2="80"/>
<line x1="0" y1="160" x2="900" y2="160"/>
<line x1="0" y1="240" x2="900" y2="240"/>
<line x1="0" y1="320" x2="900" y2="320"/>
<line x1="0" y1="400" x2="900" y2="400"/>
<line x1="150" y1="0" x2="150" y2="506"/>
<line x1="300" y1="0" x2="300" y2="506"/>
<line x1="450" y1="0" x2="450" y2="506"/>
<line x1="600" y1="0" x2="600" y2="506"/>
<line x1="750" y1="0" x2="750" y2="506"/>
</g>
<g transform="translate(90,128)">
<rect x="0" y="0" width="360" height="250" rx="12" fill="#0b1220" stroke="#334155" stroke-width="1.5"/>
<rect x="0" y="0" width="360" height="40" rx="12" fill="#1e293b"/>
<rect x="0" y="20" width="360" height="20" fill="#1e293b"/>
<circle cx="24" cy="20" r="6" fill="#ef4444"/>
<circle cx="46" cy="20" r="6" fill="#eab308"/>
<circle cx="68" cy="20" r="6" fill="#22c55e"/>
<text x="200" y="25" text-anchor="middle" font-family="Consolas,monospace" font-size="14" fill="#94a3b8">root@server: ~</text>
<g font-family="Consolas,monospace" font-size="15">
<text x="22" y="72" fill="#e2e8f0"><tspan fill="#22c55e">$</tspan> sudo ufw default deny incoming</text>
<text x="22" y="98" fill="#e2e8f0"><tspan fill="#22c55e">$</tspan> sudo ufw allow 22,80,443/tcp</text>
<text x="22" y="124" fill="#e2e8f0"><tspan fill="#22c55e">$</tspan> sudo ufw enable</text>
<text x="22" y="154" fill="#64748b">Firewall is active</text>
<text x="22" y="180" fill="#e2e8f0"><tspan fill="#22c55e">$</tspan> sudo systemctl enable fail2ban</text>
<text x="22" y="210" fill="#64748b">● fail2ban.service  active (running)</text>
<text x="22" y="238" fill="#e2e8f0"><tspan fill="#22c55e">$</tspan> <tspan fill="#f8fafc" text-anchor="start">all systems secured ✓</tspan></text>
</g>
</g>
<g transform="translate(520,88)">
<path d="M130 8 L240 44 L240 130 C240 190 195 222 130 246 C65 222 20 190 20 130 L20 44 Z" fill="none" stroke="#38bdf8" stroke-width="6" stroke-linejoin="round"/>
<path d="M84 140 L116 172 L180 106" fill="none" stroke="#4ade80" stroke-width="12" stroke-linecap="round" stroke-linejoin="round"/>
<text x="130" y="292" text-anchor="middle" font-family="Arial,sans-serif" font-size="30" font-weight="bold" fill="#38bdf8">SECURE</text>
<text x="130" y="318" text-anchor="middle" font-family="Arial,sans-serif" font-size="15" fill="#64748b">Harden before you go live</text>
</g>
<text x="450" y="448" text-anchor="middle" font-family="Arial,sans-serif" font-size="40" font-weight="bold" fill="#f8fafc">Linux 服务器安全加固</text>
<text x="450" y="482" text-anchor="middle" font-family="Arial,sans-serif" font-size="17" fill="#94a3b8">上线前必做的 10 件事 · 挡住 90% 的自动化攻击</text>
</svg>
